<svg xmlns="http://www.w3.org/2000/svg" viewBox="0 0 1600 220" fill="none" preserveAspectRatio="xMidYMax meet">
  <g stroke="#9fd4d4" stroke-width="1.6" stroke-linecap="round" stroke-linejoin="round" fill="none">
    <!-- ground line -->
    <path d="M20 200 H1580" opacity="0.45"/>

    <!-- decorative arch / makara gate -->
    <path d="M60 200 V130 Q60 95 95 95 Q130 95 130 130 V200"/>
    <path d="M75 200 V140 Q75 115 95 115 Q115 115 115 140 V200"/>
    <path d="M95 95 V78"/>
    <circle cx="95" cy="72" r="5"/>

    <!-- stupa -->
    <ellipse cx="210" cy="200" rx="48" ry="8"/>
    <path d="M170 200 Q170 155 210 140 Q250 155 250 200"/>
    <path d="M185 168 Q210 155 235 168"/>
    <path d="M210 140 V108"/>
    <path d="M202 108 H218"/>
    <path d="M210 108 V92"/>
    <circle cx="210" cy="86" r="4"/>

    <!-- standing Buddha -->
    <ellipse cx="310" cy="200" rx="28" ry="6"/>
    <path d="M310 194 V120"/>
    <path d="M290 145 Q310 130 330 145"/>
    <circle cx="310" cy="105" r="14"/>
    <path d="M296 100 Q310 88 324 100"/>

    <!-- Independence Hall -->
    <path d="M380 200 V145 H520 V200"/>
    <path d="M390 145 V115 H510 V145"/>
    <path d="M400 200 V145 M430 200 V145 M450 200 V145 M480 200 V145 M510 200 V145"/>
    <path d="M395 115 Q450 85 505 115"/>
    <path d="M450 85 V72"/>
    <circle cx="450" cy="66" r="4"/>

    <!-- tiered temple -->
    <path d="M560 200 V160 H640 V200"/>
    <path d="M570 160 H630 L600 130 Z"/>
    <path d="M580 130 H620 L600 108 Z"/>
    <path d="M590 108 H610 L600 92 Z"/>
    <path d="M600 92 V80"/>

    <!-- birds -->
    <path d="M680 70 Q688 62 696 70 M700 78 Q708 70 716 78"/>
    <path d="M730 60 Q736 54 742 60"/>

    <!-- Lotus Tower -->
    <path d="M780 200 V95"/>
    <path d="M760 200 H800"/>
    <path d="M768 120 Q780 95 792 120 Q780 135 768 120"/>
    <path d="M772 108 Q780 98 788 108"/>
    <path d="M780 95 V78"/>
    <circle cx="780" cy="72" r="5"/>

    <!-- lighthouse / clock tower -->
    <path d="M850 200 V110 H880 V200"/>
    <path d="M845 110 H885"/>
    <path d="M855 110 V90 H875 V110"/>
    <path d="M865 90 V78"/>
    <path d="M858 78 H872"/>

    <!-- kovil gopuram -->
    <path d="M920 200 V155 H1000 V200"/>
    <path d="M930 155 H990 L960 125 Z"/>
    <path d="M938 125 H982 L960 100 Z"/>
    <path d="M946 100 H974 L960 80 Z"/>
    <path d="M952 80 H968 L960 68 Z"/>
    <path d="M940 170 H980 M945 182 H975"/>

    <!-- tea hills -->
    <path d="M1040 200 Q1080 150 1120 175 Q1160 140 1200 200"/>
    <path d="M1060 200 Q1100 165 1140 185 Q1175 160 1200 200"/>

    <!-- palm -->
    <path d="M1260 200 V120"/>
    <path d="M1260 130 Q1230 105 1215 95"/>
    <path d="M1260 125 Q1290 100 1305 90"/>
    <path d="M1260 120 Q1245 90 1235 80"/>
    <path d="M1260 118 Q1275 88 1288 78"/>

    <!-- train bridge arches -->
    <path d="M1340 200 V150 H1480 V200"/>
    <path d="M1360 200 Q1380 165 1400 200"/>
    <path d="M1400 200 Q1420 165 1440 200"/>
    <path d="M1440 200 Q1460 165 1480 200"/>
    <path d="M1340 150 H1480"/>

    <!-- airplane + dashed path -->
    <path d="M1520 55 L1545 48 L1565 55 L1545 58 Z" fill="#9fd4d4" stroke="none" opacity="0.7"/>
    <path d="M1180 40 Q1320 28 1450 48" stroke-dasharray="4 6" opacity="0.55"/>
  </g>
</svg>
